<svg width="444" height="864" viewBox="0 0 444 864" fill="none" xmlns="http://www.w3.org/2000/svg">
<path d="M443.286 125.553L384.267 2.10406C383.83 1.18929 382.777 0.746528 381.817 1.0737L340.836 15.0444C340.035 15.3175 339.493 16.0655 339.482 16.9119L338.007 132.474C338.002 132.819 338.087 133.159 338.253 133.461L388.635 225.335C388.87 225.764 388.94 226.263 388.832 226.739L350 398C340.686 425.942 294.365 434.66 293.968 439.702C293.953 439.901 293.999 440.101 293.998 440.3L293.522 511.277C293.512 512.761 295.081 513.732 296.427 513.107C332.895 496.17 340.325 508.905 340 518L330.115 854.597C330.067 856.227 331.884 857.226 333.234 856.313L415.663 800.566C416.189 800.21 416.515 799.625 416.54 798.99L443.48 126.495C443.493 126.17 443.427 125.846 443.286 125.553Z" fill="#D9D9D9"/>
<path d="M305.382 378.426L337.886 244.53C338.196 243.253 337.211 242.029 335.897 242.059L162.557 245.965C161.642 245.986 160.857 246.626 160.653 247.519L132.043 372.625C131.762 373.854 132.675 375.034 133.935 375.07L303.381 379.953C304.325 379.981 305.159 379.344 305.382 378.426Z" fill="#D9D9D9"/>
<path d="M240.358 436.915L267.525 418.392C269.115 417.308 268.407 414.824 266.485 414.741L75.7117 406.531C75.2514 406.511 74.7984 406.651 74.4292 406.926L38.3034 433.9C37.7978 434.278 37.5 434.872 37.5 435.503V488.148C37.5 489.193 38.3044 490.062 39.3462 490.142L236.378 505.336C237.528 505.425 238.514 504.525 238.531 503.372L239.485 438.538C239.494 437.887 239.82 437.282 240.358 436.915Z" fill="#D9D9D9"/>
<path d="M290.698 26.2763L69.7529 52.7896C68.7515 52.9098 67.9962 53.7569 67.9912 54.7655L67.511 151.296C67.5051 152.477 68.5184 153.406 69.6944 153.298L288.234 133.163C289.242 133.07 290.021 132.239 290.05 131.227L292.935 28.3181C292.969 27.097 291.91 26.1308 290.698 26.2763Z" fill="#D9D9D9"/>
<path d="M72.1511 829.29L264.537 863.068C265.8 863.289 266.942 862.283 266.881 861.003L266.576 854.593C266.531 853.661 265.848 852.884 264.93 852.719L80.633 819.792C79.686 819.623 78.9936 818.803 78.9848 817.841L76.5094 547.026C76.5035 546.382 76.1878 545.78 75.6614 545.409L11.2966 500.061C10.7938 499.707 10.4819 499.141 10.451 498.527L6.55484 421.09C6.52066 420.411 6.83406 419.76 7.3868 419.364L81.9087 365.924C82.2906 365.65 82.5639 365.25 82.6806 364.795L113.206 245.647C113.387 244.94 113.169 244.19 112.636 243.691L35.6268 171.587C35.2266 171.212 34.9977 170.69 34.9938 170.141L34.0131 34.8016C34.0056 33.7777 34.7729 32.9135 35.7905 32.7996L98.9866 25.7254C100.094 25.6014 100.887 24.5958 100.749 23.4897L100.241 19.427C100.107 18.3537 99.1435 17.5816 98.0667 17.6841L28.3165 24.327C27.2874 24.425 26.5026 25.291 26.5061 26.3247L26.9972 173.148C26.999 173.692 27.2224 174.212 27.616 174.588L103.652 247.19C104.176 247.69 104.388 248.434 104.207 249.136L75.6803 359.8C75.5638 360.253 75.2928 360.65 74.9142 360.923L0.847125 414.388C0.3164 414.772 0.00672698 415.39 0.0180107 416.045L1.48244 500.981C1.49347 501.621 1.81019 502.217 2.33441 502.585L69.1496 549.404C69.6827 549.778 70.0007 550.387 70.0019 551.038L70.497 827.324C70.4987 828.293 71.196 829.122 72.1511 829.29Z" fill="#D9D9D9"/>
</svg>
