<svg width="445" height="866" viewBox="0 0 445 866" fill="none" xmlns="http://www.w3.org/2000/svg">
<path d="M383.289 4L343.258 17.3593L341.924 133.585L392.629 225.764C383.289 273.412 358.737 387.678 351.264 404.778C343.792 421.877 307.231 431.496 297.891 442.184L296.556 510.316C302.783 507.199 318.44 500.964 331.249 500.964C344.059 500.964 344.593 512.542 343.258 518.331L333.918 853.648L415.313 798.876L442 126.905L383.289 4Z" fill="white"/>
<path d="M163.122 248.474L136.435 372.715L304.562 376.723L335.252 247.138L163.122 248.474Z" fill="white"/>
<path d="M41.696 435.504L75.0547 408.785L264.532 415.465L237.845 435.504L237.178 468.902L236.511 502.3L44.3647 486.269L41.696 435.504Z" fill="white"/>
<path d="M60.3769 13.3515L28.3526 29.3826L29.6869 172.327L109.748 245.802L79.0578 362.028L4.33435 419.473L3 502.3L72.386 543.714L73.7204 828.266L268.535 863M343.258 17.3593L383.289 4L442 126.905L415.313 798.876L333.918 853.648L343.258 518.331C344.593 512.542 344.059 500.964 331.249 500.964C318.44 500.964 302.783 507.199 296.556 510.316L297.891 442.184C307.231 431.496 343.792 421.877 351.264 404.778C358.737 387.678 383.289 273.412 392.629 225.764L341.924 133.585L343.258 17.3593ZM136.435 372.715L163.122 248.474L335.252 247.138L304.562 376.723L136.435 372.715ZM75.0547 408.785L41.696 435.504L44.3647 486.269L236.511 502.3L237.178 468.902L237.845 435.504L264.532 415.465L75.0547 408.785Z" stroke="white" stroke-width="5"/>
</svg>
