<?xml version="1.0" encoding="UTF-8"?><svg id="Layer_2" xmlns="http://www.w3.org/2000/svg" viewBox="0 0 99.48 271.81"><defs><style>.cls-1{fill:#1f65dc;}</style></defs><g id="Layer_2-2"><path class="cls-1" d="M22.25,3.25c19.16-4.64,42.86-3.91,52.64-.38,2.07,.75,3.5,2.65,3.72,4.84l3.18,32.31c.1,1.03-.71,1.93-1.75,1.93l-2.57,.48c-1.58,.29-2.57,1.86-2.17,3.42,2.58,10.08,22.99,22.12,24.1,39.21,.72,12.21-4.28,173.96-4.28,173.96,0,0,1.22,11.31-11.62,11.62s-46.78-3.97-59.31,0-21.1-2.75-21.1-11.01S.04,84.44,.04,84.44c-1.09-11.26,18.63-26.55,22.59-37.61,.52-1.45-.33-3.02-1.81-3.45l-4.13-1.18c-1.15-.33-1.92-1.42-1.84-2.61l1.98-29.92c.2-3.1,2.4-5.7,5.42-6.43Z"/></g></svg>